<?xml version="1.0" encoding="utf-8"?>
<!-- Generator: Adobe Illustrator 21.1.0, SVG Export Plug-In . SVG Version: 6.00 Build 0)  -->
<svg version="1.1" id="Capa_1" xmlns="http://www.w3.org/2000/svg" xmlns:xlink="http://www.w3.org/1999/xlink" x="0px" y="0px"
	 viewBox="0 0 480 480" style="enable-background:new 0 0 480 480;" xml:space="preserve">
<style type="text/css">
	.st0{fill:#4EC2A3;}
	.st1{fill:#213D4B;}
</style>
<g>
	<g>
		<path class="st0" d="M431.8,131.7l-9.6-70.9c-0.6-4.4-4.6-7.5-9-6.9l0,0l-70.9,9.6c-4.4,0.6-7.5,4.6-6.9,9c0.6,4.3,4.6,7.5,9,6.9
			l51.3-6.9l-23.6,30.1L226.5,267.9l-75.7-56.3l-135.3,151l11.4,11.1l126.3-140l74.6,55.5l156.9-176.7l24.1-30.7l7,52.2
			c0.6,4.4,4.6,7.5,9,6.9C429.2,140.1,432.3,136.1,431.8,131.7z"/>
	</g>
</g>
<g>
	<g>
		<path class="st1" d="M85.3,400.3h-56c-4.4,0-8,3.6-8,8v48c0,4.4,3.6,8,8,8h56c4.4,0,8-3.6,8-8v-48
			C93.3,403.9,89.7,400.3,85.3,400.3z M77.3,448.3h-40v-32h40V448.3z"/>
	</g>
</g>
<g>
	<g>
		<path class="st1" d="M173.3,306.3h-56c-4.4,0-8,3.6-8,8v142c0,4.4,3.6,8,8,8h56c4.4,0,8-3.6,8-8v-142
			C181.3,309.9,177.7,306.3,173.3,306.3z M165.3,448.3h-40v-126h40V448.3z"/>
	</g>
</g>
<g>
	<g>
		<path class="st1" d="M261.3,336.3h-56c-4.4,0-8,3.6-8,8v112c0,4.4,3.6,8,8,8h56c4.4,0,8-3.6,8-8v-112
			C269.3,339.9,265.7,336.3,261.3,336.3z M253.3,448.3h-40v-96h40V448.3z"/>
	</g>
</g>
<g>
	<g>
		<path class="st1" d="M349.3,260.3h-56c-4.4,0-8,3.6-8,8v188c0,4.4,3.6,8,8,8h56c4.4,0,8-3.6,8-8v-188
			C357.3,263.9,353.7,260.3,349.3,260.3z M341.3,448.3h-40v-172h40V448.3z"/>
	</g>
</g>
<g>
	<g>
		<path class="st1" d="M437.3,168.3h-56c-4.4,0-8,3.6-8,8v280c0,4.4,3.6,8,8,8h56c4.4,0,8-3.6,8-8v-280
			C445.3,171.9,441.7,168.3,437.3,168.3z M429.3,448.3h-40v-264h40V448.3z"/>
	</g>
</g>
</svg>
