<?xml version="1.0" encoding="utf-8"?>
<!-- Generator: Adobe Illustrator 21.1.0, SVG Export Plug-In . SVG Version: 6.00 Build 0)  -->
<svg version="1.1" id="Capa_1" xmlns="http://www.w3.org/2000/svg" xmlns:xlink="http://www.w3.org/1999/xlink" x="0px" y="0px"
	 viewBox="0 0 512 512" style="enable-background:new 0 0 512 512;" xml:space="preserve">
<style type="text/css">
	.st0{fill:#4EC2A4;}
	.st1{fill:#223E4C;}
</style>
<path class="st0" d="M27.4,244.2c1.4-2.7,4.2-4.3,7.3-4.3h27.1c3,0,5.8,1.7,7.3,4.3l5.6,10.3c2,3.6,6.5,5,10.2,3c3.6-2,5-6.5,3-10.2
	L82.2,237c-4.1-7.5-11.9-12.1-20.4-12.1H34.7c-8.5,0-16.3,4.6-20.4,12.1L2.8,258c-3.8,7-3.8,15.3,0,22.2l11.4,20.9
	c4.1,7.5,11.9,12.1,20.4,12.1h27.1c8.5,0,16.3-4.6,20.4-12.1l9.1-16.7c2-3.6,0.6-8.2-3-10.2c-3.6-2-8.2-0.6-10.2,3L69,294
	c-1.4,2.7-4.2,4.3-7.3,4.3H34.7c-3,0-5.8-1.7-7.3-4.3L16,273c-1.3-2.5-1.3-5.4,0-7.9L27.4,244.2z"/>
<path class="st1" d="M182,269.1c0-73.8-60-133.8-133.8-133.8c-14.8,0-29.3,2.4-43.1,7.1c-3.9,1.3-6,5.6-4.7,9.5s5.6,6,9.5,4.7
	c12.3-4.2,25.2-6.3,38.3-6.3c9.8,0,19.4,1.2,28.5,3.5c-4.1,7.1-4.5,15.8-1.1,23.3l7.5,16.2c4,8.5,12.3,14.1,21.7,14.5l17.8,0.8
	c0.4,0,0.7,0,1.1,0c7.8,0,15.2-3.7,20-9.9c6.7,9.1,12.2,19.2,16.1,30c-8.1,0.5-15.7,5-19.9,12l-9.3,15.3c-4.9,8-4.9,18,0,26.1
	l9.3,15.3c4.3,7,11.8,11.5,19.9,12c-3.9,10.8-9.4,20.9-16.1,30c-5-6.4-12.9-10.2-21.1-9.8l-17.8,0.8c-9.4,0.4-17.7,6-21.7,14.5
	l-7.5,16.2c-3.5,7.4-3,16.2,1.1,23.3c-9.1,2.3-18.7,3.5-28.5,3.5c-13.1,0-26-2.1-38.3-6.3c-3.9-1.3-8.2,0.8-9.5,4.7
	c-1.3,3.9,0.8,8.2,4.7,9.5c13.9,4.7,28.4,7.1,43.1,7.1C122,402.8,182,342.8,182,269.1L182,269.1z M132.3,189c-2,2.9-5.4,4.7-8.9,4.5
	l-17.8-0.8c-3.8-0.2-7.2-2.4-8.8-5.9l-7.5-16.2c-1.5-3.2-1.2-7,0.8-9.9l1.5-2.3c16.1,6.3,30.4,16.1,42.2,28.3L132.3,189z
	 M161.5,294.5c-3.5,0-6.9-1.9-8.7-4.9l-9.3-15.3c-2-3.3-2-7.3,0-10.5l9.3-15.3c1.8-3,5.2-4.9,8.7-4.9h2.7c1.8,8.2,2.7,16.7,2.7,25.4
	c0,8.7-1,17.2-2.7,25.4L161.5,294.5L161.5,294.5z M91.6,379.7l-1.5-2.3c-2-2.9-2.3-6.7-0.8-9.9l7.5-16.2c1.6-3.4,5-5.7,8.8-5.9
	l17.8-0.8c3.5-0.2,6.9,1.6,8.9,4.5l1.5,2.2C122,363.6,107.6,373.3,91.6,379.7z"/>
<path class="st1" d="M504.2,387.9l-14.5-0.5V284.7l15.2-0.9c4.1-0.2,7.3-3.8,7-7.9c-0.2-4.1-3.8-7.3-7.9-7l-131.9,7.8l-60.7-78.1
	l-21.5-89.7c-3-12.4-13.4-21.6-26.1-23l-9.2-1c-5.5-0.6-11,1.1-15.2,4.7c-4.2,3.6-6.7,8.8-6.8,14.3l-0.2,5.9h-10.9
	c-5.5,0-13.5,4.1-13.5,11.5v19.1c0,7.4,8,11.5,13.5,11.5h9.5l-0.4,12.8h-10.1c-5.5,0-13.5,4.1-13.5,11.5v19.1
	c0,7.4,8,11.5,13.5,11.5h8.8l-0.4,12.8h-10.3c-5.5,0-13.5,4.1-13.5,11.5v19.1c0,7.4,8,11.5,13.5,11.5h9l-0.4,12.8h-12.6
	c-6.3,0-11.5,5.1-11.5,11.5v19.1c0,6.3,5.1,11.5,11.5,11.5h11.2l-0.4,12.8h-12.8c-6.3,0-11.5,5.1-11.5,11.5v19.1
	c0,6.3,5.1,11.5,11.5,11.5H224l-0.3,8.8c-0.4,12,3.8,23.5,11.9,32.3H112.1c-4.1,0-7.5,3.4-7.5,7.5s3.4,7.5,7.5,7.5h157.4h29.2h165.7
	c4.1,0,7.5-3.4,7.5-7.5s-3.4-7.5-7.5-7.5H333.8l19-14.5l150.9,5c0.1,0,0.2,0,0.3,0c4,0,7.4-3.2,7.5-7.2
	C511.6,391.5,508.4,388,504.2,387.9L504.2,387.9z M474.8,386.9l-14.9-0.5v-99.9l14.9-0.9V386.9z M357.2,383
	c-11.1-40-6.8-69.9,13.2-91.3l74.5-4.4v98.5L357.2,383z M223.1,136.8v-12.1h8.9l-0.4,12.1H223.1z M222.1,191.7v-12.1h8.1l-0.4,12.1
	H222.1z M220.1,246.6v-12.1h8.3l-0.4,12.1H220.1z M218.1,301.4v-12.1h8.6l-0.4,12.1H218.1z M216.1,356.3v-12.1h8.8l-0.4,12.1H216.1z
	 M263.4,411.8l0.8-32.5c13.8,3.3,24.1,15.7,24.1,30.5v2.6h-18.8C267.4,412.4,265.4,412.2,263.4,411.8z M317.5,406
	c-4.1,3.2-9.1,5.2-14.2,6v-2.2c0-22.9-16.8-42-38.7-45.7l0.3-12.7c0.1-4.1-3.2-7.6-7.3-7.7c-0.1,0-0.1,0-0.2,0
	c-4.1,0-7.4,3.2-7.5,7.3l-1.3,53.2c-0.4-0.4-0.8-0.8-1.2-1.2c-5.9-6.1-8.9-14-8.7-22.5l9-276.2c0.1-1.8,1.1-3,1.7-3.5
	c0.5-0.5,1.6-1.2,3.1-1.2c0.2,0,0.4,0,0.6,0l3.1,0.3l-5.5,221c-0.1,4.1,3.2,7.6,7.3,7.7c0.1,0,0.1,0,0.2,0c4.1,0,7.4-3.2,7.5-7.3
	l2.7-108.3l41.9,93.1c1.2,2.8,4,4.4,6.8,4.4c1,0,2.1-0.2,3.1-0.7c3.8-1.7,5.5-6.1,3.8-9.9l-54.7-121.5l1.8-73.7
	c2.1,2,3.7,4.6,4.4,7.5l21.9,91.3c0.2,1,0.7,2,1.4,2.9l59.4,76.4c-22.7,25.3-27.8,59.3-15.4,103.9L317.5,406z"/>
<path class="st0" d="M317.1,140.5h84.4c4.1,0,7.5-3.4,7.5-7.5s-3.4-7.5-7.5-7.5h-84.4c-4.1,0-7.5,3.4-7.5,7.5
	S312.9,140.5,317.1,140.5z"/>
<path class="st0" d="M361.8,168.6c-4.1,0-7.5,3.4-7.5,7.5s3.4,7.5,7.5,7.5h84.4c4.1,0,7.5-3.4,7.5-7.5s-3.4-7.5-7.5-7.5H361.8z"/>
<path class="st0" d="M349.3,213.3c-4.1,0-7.5,3.4-7.5,7.5s3.4,7.5,7.5,7.5h56.5c4.1,0,7.5-3.4,7.5-7.5s-3.4-7.5-7.5-7.5H349.3z"/>
<path class="st0" d="M427.2,140.5h14.7c4.1,0,7.5-3.4,7.5-7.5s-3.4-7.5-7.5-7.5h-14.7c-4.1,0-7.5,3.4-7.5,7.5
	S423.1,140.5,427.2,140.5z"/>
</svg>
