<?xml version="1.0" encoding="utf-8"?>
<!-- Generator: Adobe Illustrator 20.1.0, SVG Export Plug-In . SVG Version: 6.00 Build 0)  -->
<svg version="1.1" id="Layer_1" xmlns="http://www.w3.org/2000/svg" xmlns:xlink="http://www.w3.org/1999/xlink" x="0px" y="0px"
	 viewBox="0 0 512 512" style="enable-background:new 0 0 512 512;" xml:space="preserve">
<style type="text/css">
	.st0{fill:#41479B;}
	.st1{fill:#F5F5F5;}
	.st2{fill:#FF4B55;}
</style>
<path class="st0" d="M503.2,423.7H8.8c-4.9,0-8.8-4-8.8-8.8V97.1c0-4.9,4-8.8,8.8-8.8h494.3c4.9,0,8.8,4,8.8,8.8v317.8
	C512,419.8,508,423.7,503.2,423.7z"/>
<path class="st1" d="M494.3,88.3h-30.7L300.1,195.4V88.3h-88.3v107.1L48.3,88.3H17.7C7.9,88.3,0,96.2,0,105.9v14l140.3,91.9H0v88.3
	h140.3L0,392.1v14c0,9.8,7.9,17.7,17.7,17.7h30.7l163.5-107.1v107.1h88.3V316.6l163.5,107.1h30.7c9.8,0,17.7-7.9,17.7-17.7v-14
	l-140.3-91.9H512v-88.3H371.7L512,119.9v-14C512,96.2,504.1,88.3,494.3,88.3z"/>
<g>
	<polygon class="st2" points="511.1,229.3 282,229.3 282,88.3 229.1,88.3 229.1,229.3 0,229.3 0,282.2 229.1,282.2 229.1,423.2 
		282,423.2 282,282.2 511.1,282.2 	"/>
	<path class="st2" d="M193.9,211.7L8.4,91.3C3.5,94.4,0,99.6,0,105.9v0.9l161.5,104.8H193.9z"/>
	<path class="st2" d="M332,211.7L508.5,97.1c-3.1-5.2-8.5-8.8-14.9-8.8h-3.8L299.6,211.7H332z"/>
	<path class="st2" d="M178.7,299.8L2.5,414.1c3,5.3,8.5,9.1,15.1,9.1H21L211,299.8H178.7z"/>
	<path class="st2" d="M510.9,406.9L345.8,299.8h-32.4l187.4,121.7C506.5,418.8,510.3,413.4,510.9,406.9z"/>
</g>
</svg>
