<svg xmlns="http://www.w3.org/2000/svg" width="21" height="19" viewBox="0 0 21 19">
  <defs>
    <style>
      .cls-1 {
        fill: #a1a2a4;
      }

      .cls-1, .cls-3 {
        fill-rule: evenodd;
      }

      .cls-2 {
        fill: #e86507;
      }

      .cls-3 {
        fill: #fff;
      }
    </style>
  </defs>
  <path id="Forma_1" data-name="Forma 1" class="cls-1" d="M4.337,9.554L2.976,5.526A7.5,7.5,0,0,1,14.013,7.791H7.677c-0.059,0-.118,0-0.177,0A3.711,3.711,0,0,0,4.337,9.554ZM11.214,11.5a3.709,3.709,0,0,1-1.57,3.031l-4.7,4.014a7.5,7.5,0,0,0,9.666-9.428H10.348A3.7,3.7,0,0,1,11.214,11.5ZM3.631,17.919l3.235-2.76a3.717,3.717,0,0,1-2.974-2.781L1.909,6.511A7.494,7.494,0,0,0,3.631,17.919Zm3.869-4.1A2.321,2.321,0,1,0,5.179,11.5,2.321,2.321,0,0,0,7.5,13.821Z"/>
  <circle id="Эллипс_1" data-name="Эллипс 1" class="cls-2" cx="15.5" cy="5.5" r="5.5"/>
  <path id="_" data-name="!" class="cls-3" d="M15.011,4.009L15.27,5.891h0.466l0.253-1.881V2.986H15.011V4.009ZM15,8h1V7H15V8Z"/>
</svg>
