<?xml version="1.0" encoding="utf-8"?>
<!-- Generator: Adobe Illustrator 19.2.1, SVG Export Plug-In . SVG Version: 6.00 Build 0)  -->
<svg version="1.1" id="Layer_1" xmlns="http://www.w3.org/2000/svg" xmlns:xlink="http://www.w3.org/1999/xlink" x="0px" y="0px"
	 viewBox="0 0 424.7 533.3" style="enable-background:new 0 0 424.7 533.3;" xml:space="preserve">
<metadata><?xpacket begin="﻿" id="W5M0MpCehiHzreSzNTczkc9d"?>
<x:xmpmeta xmlns:x="adobe:ns:meta/" x:xmptk="Adobe XMP Core 5.6-c111 79.158366, 2015/09/25-01:12:00        ">
   <rdf:RDF xmlns:rdf="http://www.w3.org/1999/02/22-rdf-syntax-ns#">
      <rdf:Description rdf:about=""/>
   </rdf:RDF>
</x:xmpmeta>
                                                                                                    
                                                                                                    
                                                                                                    
                                                                                                    
                                                                                                    
                                                                                                    
                                                                                                    
                                                                                                    
                                                                                                    
                                                                                                    
                                                                                                    
                                                                                                    
                                                                                                    
                                                                                                    
                                                                                                    
                                                                                                    
                                                                                                    
                                                                                                    
                                                                                                    
                                                                                                    
                           
<?xpacket end="w"?></metadata>
<style type="text/css">
	.st0{fill:#FFFFFF;}
</style>
<g>
	<path class="st0" d="M212.5,87.9c-32,0-58.1,26-58.1,58.1c0,32,26,58.1,58.1,58.1s58.1-26,58.1-58.1S244.6,87.9,212.5,87.9z
		 M255.2,115.7l-4.7,14.7l-18.5,6.1l-16.6-12.1V105l12.5-9C239,99.4,248.6,106.4,255.2,115.7z M197.2,95.9l12.5,9.1v19.4l-16.8,12.2
		l-18.4-5.9l-4.8-14.6C176.2,106.6,185.9,99.4,197.2,95.9z M160.2,145.4l12.4-9.1l18.5,5.9l6.3,19.4L186,177.3l-15.4-0.1
		c-6.5-8.7-10.4-19.5-10.4-31.2C160.2,145.7,160.2,145.6,160.2,145.4z M195.4,195.3l-4.7-14.7l11.4-15.6h20.7l11.4,15.7l-4.8,14.6
		c-5.3,1.8-10.9,2.8-16.8,2.8C206.5,198.2,200.7,197.2,195.4,195.3z M254.2,177.5h-15.4l-11.3-15.7l6.4-19.9l18.4-6.1l12.5,9
		c0,0.4,0,0.7,0,1.1C264.8,157.8,260.9,168.7,254.2,177.5z"/>
	<g>
		<path class="st0" d="M293.3,237.4c0,0.1-1.1,6.7-0.6,12.2c0.7,6.5,3,11.4,5.5,16.6c1.5,3.1,3,6.2,4.2,9.9
			c3.5,10.1,2.6,20.8-2.9,34.7l-0.5-0.2c7.8,5.6,17.4,9,27.8,9c-2.3-6.1-8.8-25.9-3.2-38.3c5.9-13.1,18.3-17.9,29.7-21
			c6-1.6,10-4.3,11.9-7.9c2.2-4.1,1-8.1,0.7-8.8l0.3-0.1c-8.7-12.2-23-20.2-39.2-20.2c-13.3,0-25.3,5.4-34,14.1H293.3z"/>
		<path class="st0" d="M297.1,277.9c-1.2-3.3-2.6-6.3-4-9.3c-2.6-5.4-5.3-11-6.1-18.5c-0.2-1.7-0.2-3.4-0.2-5
			c-4.9,7.5-7.8,16.6-7.8,26.2c0,14.1,6.1,26.9,15.8,35.7C299.4,295.2,300,286.4,297.1,277.9z"/>
		<path class="st0" d="M371.5,252.6c-0.3,0.8-0.6,1.7-1.1,2.5c-2.7,5.1-7.9,8.7-15.5,10.7c-10.6,2.8-21,7-25.9,17.8
			c-2.2,5-2.3,12.7-0.1,22.2c1.7,7.4,4.1,13.3,4.1,13.4l0,0c23.9-2.9,42.4-23.2,42.4-47.8C375.4,264.7,374,258.3,371.5,252.6z"/>
	</g>
	<g>
		<path class="st0" d="M242.8,360.4c6.1,6.1,12.8,11.4,19.4,15.3c4.4-13.2,3.8-24.9-3-31.7c-6.8-6.8-18.5-7.5-31.7-3
			C231.4,347.6,236.7,354.3,242.8,360.4z"/>
		<path class="st0" d="M181.9,421.2c-6.1-6.1-12.8-11.4-19.4-15.3c-4.4,13.2-3.8,24.9,3,31.7c6.8,6.8,18.5,7.5,31.7,3
			C193.3,434,188,427.3,181.9,421.2z"/>
		<path class="st0" d="M259.8,380.9c-7.2-4.2-14.5-9.9-21.1-16.5s-12.3-13.9-16.5-21.1l-0.2-0.4c-11.1,4.8-23,12.8-33.8,23.6
			c-10.8,10.8-18.9,22.7-23.6,33.8l0.4,0.2c7.2,4.2,14.5,9.9,21.1,16.5s12.3,13.9,16.5,21.1l0.2,0.3c11.1-4.8,23-12.8,33.8-23.6
			c10.8-10.8,18.9-22.7,23.6-33.8L259.8,380.9z M238.6,380.9c-0.6,0.6-1.3,0.8-2,0.8s-1.5-0.3-2-0.8l-4-4l-8,8l4,4
			c1.1,1.1,1.1,2.9,0,4.1c-0.6,0.6-1.3,0.8-2,0.8s-1.5-0.3-2-0.8l-4-4l-8,8l4,4c1.1,1.1,1.1,2.9,0,4.1c-0.6,0.6-1.3,0.8-2,0.8
			s-1.5-0.3-2-0.8l-4-4l-8,8l4,4c1.1,1.1,1.1,2.9,0,4.1c-0.6,0.6-1.3,0.8-2,0.8s-1.5-0.3-2-0.8l-4-4l-2.5,2.5
			c-0.6,0.6-1.3,0.8-2,0.8s-1.5-0.3-2-0.8c-1.1-1.1-1.1-2.9,0-4.1l2.5-2.5l-4-4c-1.1-1.1-1.1-2.9,0-4.1c1.1-1.1,2.9-1.1,4.1,0l4,4
			l8-8l-4-4c-1.1-1.1-1.1-2.9,0-4.1c1.1-1.1,2.9-1.1,4.1,0l4,4l8-8l-4-4c-1.1-1.1-1.1-2.9,0-4.1c1.1-1.1,2.9-1.1,4.1,0l4,4l8-8l-4-4
			c-1.1-1.1-1.1-2.9,0-4.1c1.1-1.1,2.9-1.1,4.1,0l4,4l2.5-2.5c1.1-1.1,2.9-1.1,4.1,0c1.1,1.1,1.1,2.9,0,4.1l-2.5,2.5l4,4
			C239.7,377.9,239.7,379.7,238.6,380.9z"/>
	</g>
	<g>
		<path class="st0" d="M76,252.9c-3.2,9.9-9,18.8-16.9,25.9l-1.4,1.3c1.7,9.4,6.1,17.9,12.4,24.5c-0.3-2.8-0.5-5.7-0.5-8.5
			c0-15.1,4.2-29.6,11.8-42C79.7,253.6,77.9,253.3,76,252.9z"/>
		<path class="st0" d="M121.9,226.4l-2.6,1.2c-11.5,5.3-21.2,13.3-28.5,23c3.9,1.2,7.7,2.6,11.4,4.1c9.3-9.9,22.4-16.1,37-16.1
			c0.4,0,0.9,0,1.3,0c-5.1-5.5-11.5-9.8-18.7-12.4L121.9,226.4z"/>
		<path class="st0" d="M145.4,244.7l-2.5-0.2c-1.2-0.1-2.4-0.1-3.7-0.1c-12.2,0-23.3,4.9-31.4,12.9c16.1,7.7,30.4,19.1,41.8,33.4
			c2.5-5.9,3.9-12.3,3.9-19.1C153.5,261.6,150.5,252.3,145.4,244.7z"/>
		<path class="st0" d="M98.3,319.2c-6.3-8.7-9.8-19.2-9.8-30c0-11.2,3.7-21.6,9.8-30c-3.6-1.4-7.3-2.7-11-3.8
			c-7.6,11.9-11.9,25.9-11.9,40.5c0,3.8,0.3,7.6,0.8,11.3l0.4,2.8h-0.2C82.8,314.9,90.2,318.1,98.3,319.2z"/>
		<path class="st0" d="M78.9,233.7c0,0.4,0,0.8,0,1.2c0,4.2-0.5,8.4-1.3,12.5c2.5,0.4,4.9,1,7.3,1.6c7.4-10.3,17.1-19,28.7-25
			c-2.7-0.5-5.5-0.7-8.3-0.7c-9.8,0-18.8,2.9-26.4,7.9V233.7z"/>
		<path class="st0" d="M70.3,252.1c-2.5-0.3-5.1-0.6-7.6-0.7l-1.2-0.1c-2.8,6.1-4.4,13-4.4,20.2c0,0.5,0,0.9,0,1.4
			C63.1,267,67.6,259.9,70.3,252.1z"/>
		<path class="st0" d="M145.9,295.3c-11.3-14.6-25.8-26-42.1-33.6c-6,7.6-9.5,17.2-9.5,27.6s3.7,20.6,10.3,28.6l1.5,1.8
			c17.3-0.3,32.3-9.6,40.6-23.5L145.9,295.3z"/>
		<path class="st0" d="M71.8,246.5c0.8-3.6,1.2-7.2,1.3-11c-3.3,3-6.3,6.4-8.7,10.2C66.9,245.9,69.4,246.1,71.8,246.5z"/>
	</g>
	<polygon class="st0" points="326.8,157.7 321.3,152.3 212.4,261.1 103.6,152.2 98.2,157.6 207,266.5 98.1,375.3 103.5,380.7 
		212.4,271.9 321.2,380.8 326.6,375.4 217.9,266.5 	"/>
	<path class="st0" d="M212.4,522.7L50.1,437.6c-10.3-5.5-41.7-22.1-41.7-72.4V60l4.7-0.1c10.6-0.2,21-0.1,31.1-0.1
		c59.6,0.3,111,0.6,165-46.5l3.2-2.8l3.2,2.8c54,47.2,105.4,46.9,165,46.5c10.1-0.1,20.5-0.1,31.1,0.1l4.7,0.1v305.2
		c0,50.3-31.3,67-41.6,72.4l0,0L212.4,522.7z M18,69.5v295.7c0,39.9,20.9,55.6,36.5,63.9l157.8,82.7l157.8-82.7
		c15.7-8.3,36.5-24,36.5-63.9V69.5c-8.8-0.1-17.6,0-26.1,0c-57.9,0.3-112.6,0.6-168.2-46.2C156.8,70.1,102,69.8,44.2,69.5
		C35.6,69.4,26.9,69.4,18,69.5z"/>
</g>
</svg>
