<?xml version="1.0" encoding="utf-8"?>
<!-- Generator: Adobe Illustrator 19.2.1, SVG Export Plug-In . SVG Version: 6.00 Build 0)  -->
<svg version="1.1" id="Layer_1" xmlns="http://www.w3.org/2000/svg" xmlns:xlink="http://www.w3.org/1999/xlink" x="0px" y="0px"
	 viewBox="0 0 32 16" style="enable-background:new 0 0 32 16;" xml:space="preserve">
<style type="text/css">
	.st0{fill:none;}
	.st1{fill:#A1A2A4;}
	.st2{fill:#2A2E32;}
</style>
<path class="st0" d="M-1,0"/>
<path class="st1" d="M19,1h10c1.1,0,2,0.9,2,2v10c0,1.1-0.9,2-2,2H19c-1.1,0-2-0.9-2-2V3C17,1.9,17.9,1,19,1z"/>
<g>
	<rect x="20.9" y="6.6" transform="matrix(0.7071 -0.7071 0.7071 0.7071 -0.136 17.7805)" class="st2" width="1" height="5"/>
	<rect x="21.3" y="7.5" transform="matrix(0.7071 -0.7071 0.7071 0.7071 1.7906 20.3464)" class="st2" width="8.3" height="1"/>
</g>
<path class="st1" d="M3,1h10c1.1,0,2,0.9,2,2v10c0,1.1-0.9,2-2,2H3c-1.1,0-2-0.9-2-2V3C1,1.9,1.9,1,3,1z"/>
</svg>
