<?xml version="1.0" encoding="utf-8"?>
<!-- Generator: Adobe Illustrator 19.2.1, SVG Export Plug-In . SVG Version: 6.00 Build 0)  -->
<svg version="1.1" id="Layer_1" xmlns="http://www.w3.org/2000/svg" xmlns:xlink="http://www.w3.org/1999/xlink" x="0px" y="0px"
	 viewBox="0 0 20 20" style="enable-background:new 0 0 20 20;" xml:space="preserve">
<style type="text/css">
	.st0{fill:#A1A2A4;}
</style>
<g>
	<g>
		<path class="st0" d="M18.3,3.1l-0.9,0.3c-0.3-0.4-0.6-0.7-1-1l0.2-0.9c0.1-0.3-0.1-0.7-0.4-0.8l-1.4-0.6c-0.3-0.1-0.7,0-0.8,0.3
			l-0.4,0.8c-0.5-0.1-1-0.1-1.6,0l-0.4-0.8c-0.2-0.3-0.5-0.4-0.8-0.3L9.4,0.7C9.1,0.8,8.9,1.2,9,1.5l0.3,0.8C8.9,2.6,8.5,3,8.2,3.4
			L7.4,3.2C7.1,3.1,6.7,3.3,6.6,3.6L6,5C5.9,5.3,6,5.7,6.3,5.8l0.8,0.4c-0.1,0.5,0,1,0,1.4L6.3,8.1C6,8.3,5.9,8.6,6,8.9l0.6,1.4
			c0.1,0.3,0.5,0.5,0.8,0.4l0.9-0.3c0.3,0.4,0.7,0.7,1.1,1l-0.2,0.9c-0.1,0.3,0.1,0.6,0.4,0.8l1.4,0.6c0.3,0.1,0.7,0,0.8-0.3
			l0.5-0.9c0.5,0,1,0,1.5,0l0.5,0.8c0.2,0.3,0.5,0.4,0.8,0.3l1.4-0.6c0.3-0.1,0.5-0.5,0.4-0.8l-0.3-1c0.4-0.3,0.7-0.6,1-1l1,0.3
			c0.3,0.1,0.7-0.1,0.8-0.4L20,8.7c0.1-0.3,0-0.7-0.3-0.8l-0.9-0.5c0-0.4,0-0.9,0-1.3l0.9-0.5C20,5.4,20.1,5.1,20,4.8l-0.6-1.4
			C18.9,3.1,18.6,3,18.3,3.1z M14.3,10.2c-1.8,0.8-3.9,0-4.7-1.8s0-3.9,1.8-4.7s3.9,0,4.7,1.8C16.9,7.3,16,9.4,14.3,10.2z M7.6,18
			l-0.3-0.5c0.2-0.2,0.3-0.5,0.4-0.7h0.6c0.3,0,0.5-0.2,0.5-0.5l0.1-0.8c0-0.2-0.1-0.5-0.4-0.5L8,14.9c0-0.3-0.1-0.6-0.3-0.9
			l0.4-0.4c0.2-0.2,0.2-0.5,0-0.7l-0.5-0.6c-0.2-0.2-0.4-0.2-0.6-0.1l-0.4,0.3C6.3,12.3,6,12.2,5.7,12v-0.5c0-0.3-0.2-0.5-0.5-0.5
			l-0.8-0.1c-0.2,0-0.5,0.2-0.5,0.4l-0.1,0.5c-0.3,0.1-0.6,0.2-0.9,0.3l-0.3-0.3c-0.2-0.2-0.5-0.2-0.7,0l-0.6,0.5
			c-0.2,0.2-0.2,0.4-0.1,0.6l0.3,0.4c-0.2,0.3-0.3,0.5-0.4,0.8H0.6c-0.3,0-0.5,0.2-0.5,0.5L0,15.4c0,0.2,0.1,0.5,0.4,0.5L0.9,16
			c0.1,0.3,0.2,0.6,0.3,0.9l-0.4,0.4c-0.2,0.2-0.2,0.5,0,0.7l0.5,0.6c0.2,0.2,0.4,0.2,0.6,0.1l0.4-0.3c0.3,0.2,0.5,0.3,0.8,0.4v0.5
			c0,0.3,0.2,0.5,0.5,0.5l0.8,0.1c0.2,0,0.5-0.2,0.5-0.4L5,18.9c0.3-0.1,0.6-0.2,0.8-0.3L6.2,19c0.2,0.2,0.5,0.2,0.7,0l0.6-0.5
			C7.7,18.5,7.7,18.2,7.6,18z M4.2,17.8c-1.4-0.1-2.4-1.3-2.3-2.6s1.3-2.3,2.7-2.2C6,13.1,7,14.3,6.9,15.6
			C6.9,16.9,5.6,17.9,4.2,17.8z M13.4,16.3l-0.2,0.1c-0.1-0.2-0.2-0.3-0.4-0.5l0.1-0.2c0-0.2,0-0.3-0.2-0.4l-0.3-0.1
			c-0.2-0.1-0.3,0-0.4,0.1l-0.1,0.2c-0.2,0-0.4,0-0.6,0l-0.1-0.2c-0.1-0.2-0.3-0.2-0.4-0.2l-0.3,0.1c-0.2,0.1-0.3,0.2-0.2,0.4
			l0.1,0.2c-0.1,0.1-0.3,0.2-0.4,0.4l-0.2-0.1c-0.2,0-0.3,0-0.4,0.2l-0.1,0.3c-0.1,0.2,0,0.3,0.1,0.4l0.2,0.1c0,0.2,0,0.3,0,0.5
			l-0.2,0.1c-0.2,0.1-0.2,0.3-0.2,0.4l0.1,0.3c0.1,0.2,0.2,0.3,0.4,0.2l0.2-0.1c0.1,0.1,0.2,0.3,0.4,0.4l-0.1,0.2
			c-0.1,0.2,0,0.3,0.2,0.4l0.3,0.1c0.2,0.1,0.3,0,0.4-0.1l0.1-0.2c0.2,0,0.4,0,0.5,0l0.1,0.2c0.1,0.2,0.3,0.2,0.4,0.2l0.3-0.1
			c0.2-0.1,0.3-0.2,0.2-0.4h0.1c0.1-0.1,0.3-0.2,0.4-0.4l0.2,0.1c0.2,0.1,0.3,0,0.4-0.2l0.1-0.3c0.1-0.2,0-0.3-0.1-0.4l-0.2-0.1
			c0-0.2,0-0.3,0-0.5l0.2-0.1C14,17.2,14,17,14,16.9l-0.2-0.4C13.8,16.3,13.6,16.2,13.4,16.3z M12.1,18.6c-0.7,0.3-1.4-0.1-1.7-0.7
			c-0.3-0.7,0.1-1.4,0.7-1.7c0.7-0.3,1.4,0.1,1.7,0.7C13.1,17.5,12.8,18.3,12.1,18.6z"/>
	</g>
</g>
</svg>
