<?xml version="1.0" encoding="utf-8"?>
<!-- Generator: Adobe Illustrator 19.2.1, SVG Export Plug-In . SVG Version: 6.00 Build 0)  -->
<svg version="1.1" id="Layer_1" xmlns="http://www.w3.org/2000/svg" xmlns:xlink="http://www.w3.org/1999/xlink" x="0px" y="0px"
	 viewBox="0 0 26 33" style="enable-background:new 0 0 26 33;" xml:space="preserve">
<metadata><?xpacket begin="﻿" id="W5M0MpCehiHzreSzNTczkc9d"?>
<x:xmpmeta xmlns:x="adobe:ns:meta/" x:xmptk="Adobe XMP Core 5.6-c111 79.158366, 2015/09/25-01:12:00        ">
   <rdf:RDF xmlns:rdf="http://www.w3.org/1999/02/22-rdf-syntax-ns#">
      <rdf:Description rdf:about=""/>
   </rdf:RDF>
</x:xmpmeta>
                                                                                                    
                                                                                                    
                                                                                                    
                                                                                                    
                                                                                                    
                                                                                                    
                                                                                                    
                                                                                                    
                                                                                                    
                                                                                                    
                                                                                                    
                                                                                                    
                                                                                                    
                                                                                                    
                                                                                                    
                                                                                                    
                                                                                                    
                                                                                                    
                                                                                                    
                                                                                                    
                           
<?xpacket end="w"?></metadata>
<style type="text/css">
	.st0{fill:#FFFFFF;}
</style>
<g>
	<path class="st0" d="M25.4,3.6c-0.7,0-1.3,0-1.9,0c-3.7,0-6.8,0-10.2-2.9L13,0.5l-0.3,0.3C9.4,3.7,6.2,3.6,2.5,3.6
		c-0.6,0-1.3,0-1.9,0l-0.5,0v19.2c0,3.3,2,4.3,2.7,4.7L13,32.9l10.2-5.4l0,0c0.7-0.4,2.7-1.4,2.7-4.7V3.6L25.4,3.6z M24.9,22.9
		c0,2.7-1.6,3.5-2.2,3.8L13,31.8l-9.7-5.1c-0.6-0.3-2.2-1.2-2.2-3.8V4.6c0.5,0,1,0,1.4,0c3.6,0,7,0,10.5-2.8
		c3.5,2.9,6.9,2.8,10.5,2.8c0.5,0,0.9,0,1.4,0V22.9z"/>
	<polygon class="st0" points="20.3,9.9 19.6,9.2 13,15.8 6.4,9.2 5.7,9.9 12.3,16.5 5.7,23.1 6.4,23.9 13,17.3 19.6,23.9 20.3,23.2 
		13.7,16.5 	"/>
	<path class="st0" d="M13,12.4c1.8,0,3.3-1.5,3.3-3.3S14.8,5.9,13,5.9S9.8,7.4,9.8,9.2S11.2,12.4,13,12.4z M13,6.9
		c1.2,0,2.3,1,2.3,2.3s-1,2.3-2.3,2.3s-2.3-1-2.3-2.3S11.8,6.9,13,6.9z"/>
	<path class="st0" d="M8.9,16.5c0-1.8-1.5-3.3-3.3-3.3s-3.3,1.5-3.3,3.3s1.5,3.3,3.3,3.3S8.9,18.3,8.9,16.5z M5.6,18.8
		c-1.2,0-2.3-1-2.3-2.3c0-1.2,1-2.3,2.3-2.3c1.2,0,2.3,1,2.3,2.3C7.9,17.8,6.9,18.8,5.6,18.8z"/>
	<path class="st0" d="M20.4,13.3c-1.8,0-3.3,1.5-3.3,3.3s1.5,3.3,3.3,3.3s3.3-1.5,3.3-3.3S22.2,13.3,20.4,13.3z M20.4,18.8
		c-1.2,0-2.3-1-2.3-2.3c0-1.2,1-2.3,2.3-2.3s2.3,1,2.3,2.3C22.6,17.8,21.6,18.8,20.4,18.8z"/>
	<path class="st0" d="M13,20.7c-1.8,0-3.3,1.5-3.3,3.3s1.5,3.3,3.3,3.3s3.3-1.5,3.3-3.3S14.8,20.7,13,20.7z M13,26.2
		c-1.2,0-2.3-1-2.3-2.3s1-2.3,2.3-2.3s2.3,1,2.3,2.3S14.3,26.2,13,26.2z"/>
</g>
</svg>
