<?xml version="1.0" encoding="utf-8"?>
<!-- Generator: Adobe Illustrator 21.1.0, SVG Export Plug-In . SVG Version: 6.00 Build 0)  -->
<svg version="1.1" id="Layer_1" xmlns="http://www.w3.org/2000/svg" xmlns:xlink="http://www.w3.org/1999/xlink" x="0px" y="0px"
	 viewBox="0 0 283.5 60.5" style="enable-background:new 0 0 283.5 60.5;" xml:space="preserve">
<style type="text/css">
	.st0{fill:#182231;}
</style>
<path class="st0" d="M47.9,5.6C37,5.6,29.2,3.7,24.6,0L24,0C18.3,3.7,10.6,5.5,0.6,5.5L0.1,6c0,1.1,0,3.6,0,6.9
	c0,10.9-0.1,29,0,30.6l0,0c0.4,2.6,2.1,4.8,4.3,6l19.3,10.8l0.5,0L41,51.8c0.5-0.2,7.4-3.3,7.4-8.2V6.1L47.9,5.6z M47.4,43.6
	c0,4.3-6.7,7.2-6.8,7.2L24,59.5L4.9,48.8c-2-1.1-3.4-3-3.8-5.3C1,41.8,1,23.1,1.1,13c0-2.9,0-5.2,0-6.4C10.9,6.5,18.5,4.7,24.2,1
	C29,4.7,36.8,6.5,47.4,6.6V43.6z M24.2,29.3l12.6-12.6c0.2-0.2,0.5-0.2,0.7,0c0.1,0.1,0.2,0.2,0.2,0.4c0,0.1,0,0.3-0.1,0.4L24.9,30
	l12.6,12.6c0.1,0.1,0.2,0.2,0.1,0.4c0,0.1-0.1,0.3-0.2,0.4c-0.1,0.1-0.2,0.1-0.3,0.1c-0.1,0-0.3,0-0.4-0.1L24.2,30.7L11.6,43.3
	c-0.1,0.1-0.2,0.1-0.4,0.1c-0.1,0-0.2,0-0.3-0.1c-0.1-0.1-0.2-0.2-0.2-0.4c0-0.1,0-0.3,0.1-0.4L23.5,30L10.9,17.4
	c-0.1-0.1-0.2-0.2-0.1-0.4c0-0.1,0.1-0.3,0.2-0.4c0.2-0.2,0.5-0.2,0.7,0L24.2,29.3z M7.4,28c-0.3,0.7-0.8,1.4-1.3,2
	c0-0.7,0.1-1.4,0.4-2c0.1,0,0.1,0,0.2,0C7,28,7.2,28,7.4,28z M7.5,33.3c0,0.1,0,0.3,0,0.4c-0.7-0.8-1.1-1.8-1.3-2.8
	c0.8-0.8,1.5-1.7,1.9-2.8c0.3,0,0.5,0.1,0.7,0.1C8,29.7,7.5,31.4,7.5,33.3z M16.9,32.5c-1.3-1.7-2.9-3.1-4.9-4
	c1-0.9,2.3-1.5,3.7-1.5c0.3,0,0.6,0,0.9,0.1c0.5,0.9,0.8,1.8,0.8,2.9C17.5,30.9,17.3,31.8,16.9,32.5z M16.6,33.2
	c-1,1.5-2.8,2.5-4.7,2.5c0,0,0,0-0.1,0c-0.8-0.9-1.3-2.1-1.3-3.4c0-1.2,0.4-2.3,1.1-3.2C13.6,30,15.3,31.4,16.6,33.2z M7.7,27.4
	c-0.3,0-0.6,0-0.9,0c0.3-0.6,0.7-1.1,1.1-1.5C7.9,26.4,7.8,26.9,7.7,27.4z M10.9,35.6c-1-0.2-1.9-0.6-2.6-1.2c0-0.4-0.1-0.7-0.1-1.1
	c0-1.8,0.5-3.5,1.4-4.9c0.5,0.1,0.9,0.3,1.4,0.4c-0.7,1-1.1,2.2-1.1,3.5C9.8,33.5,10.2,34.7,10.9,35.6z M16.2,26.4
	c-0.1,0-0.3,0-0.4,0c-1.7,0-3.3,0.7-4.3,1.9c-0.5-0.2-0.9-0.3-1.4-0.5c1-1.3,2.3-2.4,3.9-3.1C14.8,25.1,15.6,25.6,16.2,26.4z
	 M8.3,27.5c0.2-0.7,0.3-1.4,0.3-2.1c0,0,0,0,0,0c0.9-0.6,2-1,3.2-1c0.4,0,0.7,0,1.1,0.1c-1.4,0.7-2.7,1.8-3.6,3.2
	C9,27.5,8.7,27.5,8.3,27.5z M29.6,39c0.7,0.7,0.9,1.8,0.6,3.1c-0.7-0.5-1.4-1-2-1.6c-0.7-0.7-1.2-1.4-1.7-2.1
	C27.8,38.1,28.9,38.3,29.6,39z M20.2,48.6c0.6,0.6,1.2,1.3,1.6,2c-1.3,0.3-2.4,0.1-3.1-0.6c-0.7-0.7-0.9-1.8-0.6-3.1
	C18.9,47.3,19.6,47.9,20.2,48.6z M25.9,38.6c-1.5,0.5-3.2,1.5-4.6,3c-1.5,1.5-2.5,3.1-3,4.6c0.9,0.5,1.7,1.2,2.4,1.9
	c0.7,0.7,1.3,1.5,1.9,2.3c1.5-0.5,3.1-1.5,4.6-2.9c1.5-1.5,2.5-3.1,2.9-4.6c-0.8-0.5-1.6-1.1-2.3-1.9C27,40.2,26.4,39.4,25.9,38.6z
	 M27.4,43.6L27.4,43.6c-0.2,0.2-0.4,0.2-0.5,0l-0.7-0.7l-0.8,0.8l0.7,0.7c0.1,0.1,0.1,0.3,0,0.5l0,0c-0.1,0.1-0.3,0.1-0.5,0
	l-0.7-0.7l-0.8,0.8l0.7,0.7c0.1,0.1,0.1,0.3,0,0.5l0,0c-0.1,0.1-0.3,0.1-0.5,0l-0.7-0.7l-0.8,0.8l0.7,0.7c0.1,0.1,0.1,0.3,0,0.5l0,0
	c-0.1,0.1-0.3,0.1-0.5,0l-0.7-0.7l-0.3,0.3c-0.1,0.1-0.3,0.1-0.5,0c-0.1-0.1-0.1-0.3,0-0.5l0.3-0.3l-0.7-0.7c-0.1-0.1-0.1-0.3,0-0.5
	l0,0c0.1-0.1,0.3-0.1,0.5,0l0.7,0.7l0.8-0.8l-0.7-0.7c-0.1-0.1-0.1-0.3,0-0.5l0,0c0.1-0.1,0.3-0.1,0.5,0l0.7,0.7l0.8-0.8l-0.7-0.7
	c-0.1-0.1-0.1-0.3,0-0.5l0,0c0.1-0.1,0.3-0.1,0.5,0l0.7,0.7l0.8-0.8l-0.7-0.7c-0.1-0.1-0.1-0.3,0-0.5l0,0c0.1-0.1,0.3-0.1,0.5,0
	l0.7,0.7l0.3-0.3c0.1-0.1,0.3-0.1,0.5,0c0.1,0.1,0.1,0.3,0,0.5l-0.3,0.3l0.7,0.7C27.6,43.2,27.6,43.4,27.4,43.6z M41.4,29.2
	c0.4-0.2,0.7-0.4,1.1-0.5c0.1,0.4,0.2,0.9,0.2,1.4c0,2.7-2,4.9-4.6,5.3c-0.2-0.7-0.3-1.5-0.3-2.4C37.8,31,39.5,30.2,41.4,29.2z
	 M37.4,24.7c2.2,0,4.2,1.4,4.9,3.3c-0.4,0.2-0.8,0.4-1.2,0.6c-2,1-4,2-4,4.3c0,1,0.1,1.8,0.3,2.5c0,0,0,0,0,0c-1.1,0-2.1-0.3-3-0.9
	c0,0,0-0.1,0-0.1c0.2-0.6,0.3-1.2,0.3-2.6c0-0.8-0.2-1.3-0.5-1.9c-0.3-0.7-0.7-1.5-0.9-3.2C34.3,25.4,35.7,24.7,37.4,24.7z
	 M32.8,27.4c0.2,1.4,0.6,2.1,0.9,2.7c0.3,0.5,0.4,0.9,0.4,1.6c0,1.2-0.1,1.8-0.2,2.3c-1.1-1-1.8-2.4-1.8-4
	C32,29.1,32.3,28.1,32.8,27.4z M21.7,9.3c-1,0.4-2,1.1-2.7,2c-0.9,1.2-1.5,2.6-1.5,4.2c0,0.1,0,0.2,0,0.2c0,1.4,0.5,2.7,1.3,3.7
	c0.8,1.1,1.9,1.9,3.2,2.4c0.7,0.2,1.4,0.3,2.1,0.3c0.7,0,1.4-0.1,2-0.3c1.4-0.4,2.5-1.3,3.4-2.4c0.8-1.1,1.3-2.5,1.3-4c0,0,0,0,0,0
	l-0.4,0.3l0.4-0.3c0-1.7-0.6-3.2-1.6-4.4c-0.7-0.8-1.6-1.5-2.7-1.9C25.8,9,25,8.8,24.2,8.8C23.3,8.8,22.5,9,21.7,9.3z M22.3,9.8
	l1.5,1.1v2.4l-1.6,1.2l-2.4-0.8L19.3,12C20,11,21.1,10.2,22.3,9.8z M19.7,19.5c-0.9-1.1-1.5-2.4-1.5-4c0-0.1,0-0.2,0-0.3l1.4-1
	l2.2,0.7l0.7,2.2l-1.7,2.4H19.7z M26.4,21.1c-0.7,0.3-1.5,0.4-2.2,0.4c-0.8,0-1.7-0.2-2.4-0.5l-0.4-1.3l1.5-2.1h2.5l1.5,2.1
	L26.4,21.1z M30.2,15.6c0,1.5-0.6,2.9-1.5,3.9h-1.2l-1.7-2.4l0.7-2.2l1.9-0.6L30.2,15.6z M24.5,10.8L26,9.7c1.1,0.3,2.1,1,2.8,1.9
	l-0.7,2.1l-2.1,0.7l-1.6-1.2V10.8z M75.1,29.3c0.9-0.5,1.5-0.9,2-1.5c0.8-1,1.2-2.3,1.2-3.9c0-1.6-0.4-2.9-1.2-4
	c-1.3-1.8-3.6-2.7-6.8-2.8H57.6v26.2h11.8c1.3,0,2.6-0.1,3.7-0.4c1.1-0.2,2.1-0.7,3-1.3c0.7-0.6,1.4-1.2,1.9-2.1
	c0.8-1.2,1.2-2.6,1.2-4.2c0-1.5-0.3-2.8-1-3.8C77.4,30.5,76.4,29.8,75.1,29.3z M62.9,21.7h5.7c1.3,0,2.3,0.1,3.1,0.4
	c0.9,0.4,1.4,1.2,1.4,2.4c0,1.1-0.4,1.9-1.1,2.3c-0.7,0.4-1.6,0.7-2.8,0.7h-6.4V21.7z M71.9,38.3c-0.6,0.3-1.5,0.5-2.7,0.5h-6.4v-7
	h6.5c1.1,0,2,0.2,2.6,0.4c1.1,0.5,1.7,1.4,1.7,2.8C73.6,36.7,73,37.8,71.9,38.3z M89.4,38.6h14.5v4.7H84V17.1h19.2v4.6H89.4v5.6
	h12.7v4.6H89.4V38.6z M106,17.1h21.2v4.6h-7.8v21.6h-5.5V21.8H106V17.1z M148,29.3c0.9-0.5,1.5-0.9,2-1.5c0.8-1,1.2-2.3,1.2-3.9
	c0-1.6-0.4-2.9-1.2-4c-1.3-1.8-3.6-2.7-6.8-2.8h-12.7v26.2h11.8c1.3,0,2.6-0.1,3.7-0.4c1.1-0.2,2.1-0.7,3-1.3
	c0.7-0.6,1.4-1.2,1.9-2.1c0.8-1.2,1.2-2.6,1.2-4.2c0-1.5-0.3-2.8-1-3.8C150.3,30.5,149.3,29.8,148,29.3z M135.7,21.7h5.7
	c1.3,0,2.3,0.1,3.1,0.4c0.9,0.4,1.4,1.2,1.4,2.4c0,1.1-0.4,1.9-1.1,2.3c-0.7,0.4-1.6,0.7-2.8,0.7h-6.4V21.7z M144.8,38.3
	c-0.6,0.3-1.5,0.5-2.7,0.5h-6.4v-7h6.5c1.1,0,2,0.2,2.6,0.4c1.1,0.5,1.7,1.4,1.7,2.8C146.5,36.7,145.9,37.8,144.8,38.3z M172.2,17.1
	h5.6v16.1c0,2.8-0.4,5-1.3,6.5c-1.6,2.8-4.7,4.3-9.2,4.3c-4.5,0-7.6-1.4-9.2-4.3c-0.9-1.6-1.3-3.7-1.3-6.5V17.1h5.6v16.1
	c0,1.8,0.2,3.1,0.6,3.9c0.7,1.5,2.1,2.2,4.3,2.2c2.2,0,3.6-0.7,4.3-2.2c0.4-0.8,0.6-2.1,0.6-3.9V17.1z M203.5,41.2
	c-0.1-0.4-0.1-1.2-0.1-2.4V37c0-1.8-0.3-3.2-0.8-4.1c-0.5-0.9-1.4-1.6-2.6-2.1c1.4-0.5,2.5-1.3,3.1-2.6s0.9-2.4,0.9-3.7
	c0-1-0.2-2-0.5-2.8s-0.8-1.5-1.3-2.2c-0.7-0.8-1.5-1.4-2.5-1.8c-1-0.4-2.3-0.6-4.1-0.7h-12.5v26.2h5.4V33.1h5.4
	c1.5,0,2.6,0.3,3.1,0.8c0.6,0.6,0.8,1.7,0.9,3.3l0,2.4c0,0.8,0.1,1.5,0.2,2.3c0.1,0.4,0.2,0.8,0.4,1.4h6v-0.7
	C204,42.4,203.7,41.9,203.5,41.2z M197,28.3c-0.6,0.3-1.5,0.4-2.6,0.4h-5.9v-7h6c1.1,0,2,0.2,2.5,0.5c1,0.5,1.5,1.6,1.5,3.2
	C198.6,26.8,198.1,27.8,197,28.3z M221.5,29.3h10.9v14.1h-3.6l-0.6-3.3c-1.1,1.2-2,2.1-2.8,2.6c-1.4,0.9-3.2,1.3-5.3,1.3
	c-3.5,0-6.3-1.2-8.5-3.6c-2.3-2.4-3.5-5.7-3.5-9.9c0-4.2,1.2-7.6,3.5-10.2c2.3-2.6,5.4-3.8,9.3-3.8c3.3,0,6,0.8,8,2.5
	c2,1.7,3.2,3.8,3.5,6.3H227c-0.4-1.8-1.4-3-3-3.8c-0.9-0.4-1.9-0.6-3-0.6c-2.1,0-3.8,0.8-5.2,2.4c-1.4,1.6-2,4-2,7.2
	c0,3.2,0.7,5.5,2.2,6.8c1.5,1.3,3.1,2,5,2c1.8,0,3.3-0.5,4.5-1.6c1.2-1.1,1.9-2.4,2.2-4.1h-6.1V29.3z M243.2,38.6h14.5v4.7h-19.9
	V17.1h19.2v4.6h-13.9v5.6h12.7v4.6h-12.7V38.6z M282.5,41.2c-0.1-0.4-0.1-1.2-0.1-2.4V37c0-1.8-0.3-3.2-0.8-4.1
	c-0.5-0.9-1.4-1.6-2.6-2.1c1.4-0.5,2.5-1.3,3.1-2.6c0.6-1.2,0.9-2.4,0.9-3.7c0-1-0.2-2-0.5-2.8c-0.3-0.8-0.8-1.5-1.3-2.2
	c-0.7-0.8-1.5-1.4-2.5-1.8c-1-0.4-2.3-0.6-4.1-0.7h-12.5v26.2h5.4V33.1h5.4c1.5,0,2.6,0.3,3.1,0.8c0.6,0.6,0.8,1.7,0.9,3.3l0,2.4
	c0,0.8,0.1,1.5,0.2,2.3c0.1,0.4,0.2,0.8,0.4,1.4h6v-0.7C282.9,42.4,282.6,41.9,282.5,41.2z M276,28.3c-0.6,0.3-1.5,0.4-2.6,0.4h-5.9
	v-7h6c1.1,0,2,0.2,2.5,0.5c1,0.5,1.5,1.6,1.5,3.2C277.5,26.8,277,27.8,276,28.3z"/>
</svg>
