<?xml version="1.0" encoding="utf-8"?>
<!-- Generator: Adobe Illustrator 21.0.0, SVG Export Plug-In . SVG Version: 6.00 Build 0)  -->
<svg version="1.1" id="Layer_1" xmlns="http://www.w3.org/2000/svg" xmlns:xlink="http://www.w3.org/1999/xlink" x="0px" y="0px"
	 viewBox="0 0 512 512" style="enable-background:new 0 0 512 512;" xml:space="preserve">
<style type="text/css">
	.st0{fill:#fff;}
</style>
<path id="path9" class="st0" d="M404.1,59.2L57.8,192.8c-23.6,9.5-23.5,22.7-4.3,28.5l86.4,27l33.1,101.3c4,11.1,2,15.5,13.7,15.5
	c9,0,13-4.1,18-9c3.2-3.1,22.1-21.5,43.2-42l89.9,66.4c16.5,9.1,28.5,4.4,32.6-15.4l59-277.9C435.2,63,419.9,52,404.1,59.2z
	 M153.4,242.1l194.7-122.8c9.7-5.9,18.6-2.7,11.3,3.8L192.7,273.5l-6.5,69.2L153.4,242.1z"/>
</svg>
