<?xml version="1.0" encoding="utf-8"?>
<!-- Generator: Adobe Illustrator 21.1.0, SVG Export Plug-In . SVG Version: 6.00 Build 0)  -->
<svg version="1.1" id="_x31_74006fb-eaae-4ceb-a44a-e510ad2f60cc"
	 xmlns="http://www.w3.org/2000/svg" xmlns:xlink="http://www.w3.org/1999/xlink" x="0px" y="0px" viewBox="0 0 664 779.5"
	 style="enable-background:new 0 0 664 779.5;" xml:space="preserve">
<style type="text/css">
	.st0{opacity:0.5;}
	.st1{fill:url(#SVGID_1_);}
	.st2{fill:#FFFFFF;}
	.st3{fill:#BBBBBB;}
	.st4{fill:#DBDBDB;}
	.st5{fill:#E0E0E0;}
	.st6{fill:#F5F5F5;}
	.st7{fill:#4EC2A5;}
	.st8{fill:#333333;}
	.st9{opacity:0.1;enable-background:new    ;}
	.st10{fill:#FDA57D;}
	.st11{fill:url(#SVGID_2_);}
	.st12{fill:#FAFAFA;}
	.st13{fill:url(#SVGID_3_);}
	.st14{fill:#EEEEEE;}
</style>
<title>messages1</title>
<g class="st0">
	
		<linearGradient id="SVGID_1_" gradientUnits="userSpaceOnUse" x1="324.152" y1="4.9667" x2="630.6132" y2="728.6257" gradientTransform="matrix(1 -2.443458e-03 -2.443458e-03 -1 -279.6486 717.7131)">
		<stop  offset="0" style="stop-color:#808080;stop-opacity:0.25"/>
		<stop  offset="0.54" style="stop-color:#808080;stop-opacity:0.12"/>
		<stop  offset="1" style="stop-color:#808080;stop-opacity:0.1"/>
	</linearGradient>
	<path class="st1" d="M377.1,0.6L14.9,1.4C6.6,1.5,0,8.1,0,16.3l1.6,667.7c0,8.2,6.7,14.9,14.9,14.8c0,0,0,0,0,0l362.2-0.9
		c8.2,0,14.9-6.7,14.8-14.9L392,15.4C392,7.2,385.3,0.6,377.1,0.6z"/>
	<path class="st2" d="M18.9,0.9L373.1,0c7.5,0,13.7,6.1,13.7,13.6l1.6,661.2c0,7.5-6.1,13.7-13.6,13.7l-354.2,0.9
		c-7.5,0-13.7-6.1-13.7-13.6L5.3,14.5C5.3,7,11.4,0.9,18.9,0.9z"/>
	<path class="st3" d="M377.6,190.8L377.6,190.8l-0.4-159c0-8-6.5-14.5-14.5-14.4l-70.8,0.2c-2.2,15.1-15.2,26.3-30.4,26.4
		l-131.8,0.3c-15.3,0-28.2-11.1-30.5-26.2l-69.8,0.2c-8,0-14.5,6.5-14.5,14.5L15.3,193l1.1,464.7c0,8,6.6,14.5,14.5,14.4l333.3-0.8
		c8,0,14.4-6.5,14.4-14.5L377.6,190.8z"/>
	<path class="st4" d="M152.1,26.6l81-1.2c1.1,0,2,0.9,2,2l0,1.3c0,1.1-0.9,2-2,2l-81,1.2c-1.1,0-2-0.9-2-2l0-1.3
		C150.1,27.5,151,26.6,152.1,26.6z"/>
	
		<ellipse transform="matrix(0.9999 -1.500927e-02 1.500927e-02 0.9999 -0.3794 3.803)" class="st4" cx="253.2" cy="27.2" rx="3.2" ry="3.2"/>
	<rect x="166.1" y="103.5" class="st5" width="177.6" height="14.2"/>
	<rect x="166.1" y="131.8" class="st5" width="177.6" height="14.2"/>
	<ellipse class="st6" cx="78.1" cy="118.9" rx="33.5" ry="33.7"/>
	<path class="st7" d="M92.5,142.5H63.5c-2.8,0-5.5,1.4-7.1,3.8c13.3,7.6,29.6,7.7,43,0.2C97.9,144.2,95.3,142.7,92.5,142.5z"/>
	<circle class="st8" cx="78.1" cy="118.6" r="16.7"/>
	<path class="st9" d="M72.2,136.7h11.6l0,0v4.5c0,2.9-2.4,5.3-5.3,5.3h-1c-2.9,0-5.3-2.4-5.3-5.3L72.2,136.7L72.2,136.7z"/>
	<path class="st10" d="M73.4,136.4h9.2c0.7,0,1.2,0.6,1.2,1.2v3.3c0,2.9-2.4,5.3-5.3,5.3h-1c-2.9,0-5.3-2.4-5.3-5.3v-3.3
		C72.2,137,72.7,136.5,73.4,136.4C73.4,136.5,73.4,136.4,73.4,136.4z"/>
	<path class="st9" d="M72.2,138.1c3.8,1.4,7.9,1.4,11.6,0v-1.4H72.2V138.1z"/>
	<circle class="st10" cx="78.1" cy="122.2" r="16.7"/>
	<path class="st8" d="M62.1,115.9h31.8c0,0-2.7-12.8-14.7-12S62.1,115.9,62.1,115.9z"/>
	<ellipse class="st10" cx="61.8" cy="121.5" rx="1.5" ry="2.9"/>
	<ellipse class="st10" cx="94.3" cy="121.5" rx="1.6" ry="2.9"/>
	<path class="st9" d="M62.1,116.3h31.8c0,0-2.7-12.8-14.7-12S62.1,116.3,62.1,116.3z"/>
	<rect x="166.1" y="211.4" class="st5" width="177.6" height="14.2"/>
	<rect x="166.1" y="239.7" class="st5" width="177.6" height="14.2"/>
	<ellipse class="st5" cx="78.1" cy="226.8" rx="33.5" ry="33.7"/>
	<rect x="166.1" y="319.2" class="st5" width="177.6" height="14.2"/>
	<rect x="166.1" y="347.6" class="st5" width="177.6" height="14.2"/>
	<ellipse class="st5" cx="78.1" cy="334.6" rx="33.5" ry="33.7"/>
	<rect x="166.1" y="427.1" class="st5" width="177.6" height="14.2"/>
	<rect x="166.1" y="455.4" class="st5" width="177.6" height="14.2"/>
	<ellipse class="st5" cx="78.1" cy="442.5" rx="33.5" ry="33.7"/>
	<rect x="166.1" y="535" class="st5" width="177.6" height="14.2"/>
	<rect x="166.1" y="563.3" class="st5" width="177.6" height="14.2"/>
	<ellipse class="st5" cx="78.1" cy="550.4" rx="33.5" ry="33.7"/>
</g>
<linearGradient id="SVGID_2_" gradientUnits="userSpaceOnUse" x1="557.6886" y1="-76.48" x2="862.9764" y2="644.4247" gradientTransform="matrix(1 -2.443458e-03 -2.443458e-03 -1 -279.6486 717.7131)">
	<stop  offset="0" style="stop-color:#808080;stop-opacity:0.25"/>
	<stop  offset="0.54" style="stop-color:#808080;stop-opacity:0.12"/>
	<stop  offset="1" style="stop-color:#808080;stop-opacity:0.1"/>
</linearGradient>
<path class="st11" d="M610.3,84.4L248,85.3c-8.2,0-14.9,6.7-14.9,14.9l1.6,664.5c0,8.2,6.7,14.9,14.9,14.8h0l362.3-0.9
	c8.2,0,14.8-6.7,14.8-14.9l-1.7-664.5C625.2,91.1,618.5,84.4,610.3,84.4C610.3,84.4,610.3,84.4,610.3,84.4z"/>
<path class="st2" d="M252.1,81.5l354.2-0.9c7.5,0,13.7,6.1,13.7,13.6l1.6,661.2c0,7.5-6.1,13.7-13.6,13.7L253.8,770
	c-7.5,0-13.7-6.1-13.7-13.6l-1.6-661.2C238.5,87.6,244.5,81.5,252.1,81.5z"/>
<path id="_x39_f21819d-df43-48b3-835e-9020276cbed3" class="st12" d="M610.8,272.5l-0.4-160.1c0-8-6.5-14.5-14.5-14.4L525,98.1
	c-2.2,15.1-15.2,26.3-30.4,26.4l-131.7,0.3c-15.3,0-28.2-11.1-30.5-26.2l-69.8,0.2c-8,0-14.5,6.5-14.5,14.5l0.4,160.3"/>
<path id="c36a71a1-8927-4a8e-aa0b-340c78108d04" class="st12" d="M248.5,273.6l1.1,464.7c0,8,6.5,14.5,14.5,14.5l333.3-0.8
	c8,0,14.5-6.5,14.5-14.5l-1.1-466"/>
<rect x="280.5" y="164.5" class="st5" width="70.8" height="70.8"/>
<g class="st0">
	
		<linearGradient id="SVGID_3_" gradientUnits="userSpaceOnUse" x1="430.185" y1="326.64" x2="430.185" y2="485.71" gradientTransform="matrix(1 0 0 -1 0 779.89)">
		<stop  offset="0" style="stop-color:#808080;stop-opacity:0.25"/>
		<stop  offset="0.54" style="stop-color:#808080;stop-opacity:0.12"/>
		<stop  offset="1" style="stop-color:#808080;stop-opacity:0.1"/>
	</linearGradient>
	<rect x="196.4" y="294.2" class="st13" width="467.6" height="159.1"/>
</g>
<rect x="201.9" y="300.7" class="st2" width="456.5" height="147.1"/>
<rect x="384" y="355.2" class="st7" width="177.6" height="14.2"/>
<rect x="384" y="383.5" class="st7" width="177.6" height="14.2"/>
<rect x="384" y="512.1" class="st5" width="177.6" height="14.2"/>
<rect x="384" y="540.4" class="st14" width="177.6" height="14.2"/>
<rect x="433" y="221.2" class="st7" width="79.5" height="25.1"/>
<ellipse class="st6" cx="296" cy="370.6" rx="33.5" ry="33.7"/>
<path class="st7" d="M310.4,394.2h-29.1c-2.8,0-5.5,1.4-7.1,3.8c13.3,7.6,29.6,7.7,43,0.2C315.8,395.8,313.2,394.3,310.4,394.2z"/>
<circle class="st8" cx="296" cy="370.3" r="16.7"/>
<path class="st9" d="M290.1,388.4h11.6l0,0v4.5c0,2.9-2.4,5.3-5.3,5.3h-1c-2.9,0-5.3-2.4-5.3-5.3L290.1,388.4L290.1,388.4z"/>
<path class="st10" d="M291.3,388.1h9.2c0.7,0,1.2,0.6,1.2,1.2c0,0,0,0,0,0v3.3c0,2.9-2.4,5.3-5.3,5.3c0,0,0,0,0,0h-1
	c-2.9,0-5.3-2.4-5.3-5.3v-3.3C290.1,388.7,290.6,388.1,291.3,388.1C291.3,388.1,291.3,388.1,291.3,388.1L291.3,388.1z"/>
<path class="st9" d="M290.1,389.8c3.8,1.4,7.9,1.4,11.6,0v-1.4h-11.6V389.8z"/>
<circle class="st10" cx="296" cy="373.9" r="16.7"/>
<path class="st8" d="M280,367.6h31.8c0,0-2.7-12.8-14.7-12S280,367.6,280,367.6z"/>
<ellipse class="st10" cx="279.6" cy="373.2" rx="1.5" ry="2.9"/>
<ellipse class="st10" cx="312.2" cy="373.2" rx="1.5" ry="2.9"/>
<path class="st9" d="M280,368h31.8c0,0-2.7-12.8-14.7-12S280,368,280,368z"/>
<ellipse class="st5" cx="317.8" cy="528.6" rx="33.5" ry="33.7"/>
<ellipse class="st5" cx="317.8" cy="658.2" rx="33.5" ry="33.7"/>
<rect x="384" y="637.4" class="st5" width="177.6" height="14.2"/>
<rect x="384" y="665.7" class="st14" width="177.6" height="14.2"/>
<rect x="384" y="164.5" class="st5" width="177.6" height="14.2"/>
<rect x="384" y="192.9" class="st5" width="177.6" height="14.2"/>
<path class="st4" d="M385.2,107.2l81-1.2c1.1,0,2,0.9,2,2l0,1.3c0,1.1-0.9,2-2,2l-81,1.2c-1.1,0-2-0.9-2-2l0-1.3
	C383.2,108.1,384.1,107.2,385.2,107.2z"/>
<ellipse transform="matrix(0.9999 -1.500927e-02 1.500927e-02 0.9999 -1.5635 7.3114)" class="st4" cx="486.3" cy="107.8" rx="3.2" ry="3.2"/>
</svg>
